<svg opacity="0.1" width="239" height="379" viewBox="0 0 239 379" fill="none" xmlns="http://www.w3.org/2000/svg">
<path fill-rule="evenodd" clip-rule="evenodd" d="M239 0.797884C175.304 2.98875 111.72 17.5392 59.0955 53.2758C37.2848 68.0871 22.7762 78.7449 13.7465 86.9498C4.87238 95.0134 0.611439 101.285 0.79808 107.351C0.892498 110.419 2.1205 113.115 3.89567 115.613C5.64898 118.079 8.0498 120.507 10.6943 123.041C11.4678 123.782 12.2689 124.538 13.0926 125.316L13.0926 125.316C17.9792 129.932 23.6634 135.3 29.1178 142.647C49.8816 170.613 67.9083 228.319 12.18 379H17.5084C72.6779 229.008 55.3367 169.573 33.1323 139.666C27.3954 131.939 21.372 126.254 16.4852 121.642C15.6745 120.877 14.895 120.141 14.1534 119.43C11.5108 116.899 9.42236 114.758 7.97108 112.716C6.54166 110.705 5.84974 108.952 5.79572 107.197C5.68548 103.614 8.2136 98.7332 17.109 90.6503C25.8489 82.7087 40.0903 72.2259 61.9045 57.4122C113.485 22.3847 176.014 7.98881 239 5.80043V0.797884Z" fill="#8FBCBB"/>
</svg>
