<svg opacity="0.1" width="722" height="416" viewBox="0 0 722 416" fill="none" xmlns="http://www.w3.org/2000/svg">
<path fill-rule="evenodd" clip-rule="evenodd" d="M721.833 0H714.46C554.857 146.69 461.188 165.754 395.822 165.252C382.684 165.151 370.713 164.263 359.457 163.427C354.831 163.084 350.326 162.75 345.911 162.483C330.843 161.572 316.899 161.455 303.431 164.658C276.248 171.124 251.777 190.907 223.111 242.205C168.277 340.331 79.4326 388.887 0 410.393V415.564C80.8025 393.966 171.524 344.77 227.476 244.644C255.858 193.853 279.399 175.514 304.588 169.522C317.305 166.497 330.637 166.568 345.609 167.474C349.9 167.733 354.332 168.062 358.917 168.402L358.918 168.402C370.233 169.242 382.472 170.15 395.783 170.252C463.368 170.771 559.206 150.594 721.833 0Z" fill="#8FBCBB"/>
</svg>
